<?xml version="1.0" standalone="no"?>
<!DOCTYPE svg PUBLIC "-//W3C//DTD SVG 20010904//EN"
 "http://www.w3.org/TR/2001/REC-SVG-20010904/DTD/svg10.dtd">
<svg version="1.0" xmlns="http://www.w3.org/2000/svg"
 width="2000.000000pt" height="2000.000000pt" viewBox="0 0 2000.000000 2000.000000"
 preserveAspectRatio="xMidYMid meet">
<metadata>
Created by potrace 1.14, written by Peter Selinger 2001-2017
</metadata>
<g transform="translate(0.000000,2000.000000) scale(0.100000,-0.100000)"
fill="#000000" stroke="none">
<path d="M2819 19996 c-2 -2 -42 -6 -89 -10 -47 -4 -112 -11 -145 -16 -33 -5
-77 -12 -99 -16 -142 -22 -423 -101 -561 -156 -27 -12 -68 -28 -90 -37 -64
-25 -327 -160 -345 -176 -9 -8 -20 -15 -23 -15 -19 0 -285 -186 -370 -258
-138 -119 -240 -221 -398 -398 -89 -100 -242 -329 -340 -509 -35 -66 -139
-288 -144 -310 -1 -5 -5 -17 -8 -25 -75 -176 -154 -514 -186 -805 -11 -92 -10
-14528 1 -14562 4 -12 9 -48 13 -80 7 -72 13 -109 32 -203 8 -41 16 -84 19
-95 8 -43 74 -264 99 -335 106 -298 302 -649 484 -866 14 -17 46 -55 71 -85
81 -97 277 -288 370 -359 24 -19 56 -45 70 -57 14 -12 50 -38 80 -59 30 -21
59 -41 65 -46 74 -62 409 -240 575 -305 227 -89 526 -167 725 -189 28 -3 79
-9 115 -14 76 -10 14533 -8 14570 2 14 4 50 9 80 12 30 4 64 8 75 10 11 2 40
7 65 11 301 49 662 178 942 336 769 433 1309 1174 1477 2024 16 83 33 168 37
190 12 58 15 14685 3 14765 -5 36 -12 83 -14 105 -35 255 -166 663 -286 888
-65 120 -85 156 -100 179 -11 14 -19 29 -19 32 0 12 -140 211 -220 312 -130
165 -389 417 -534 519 -16 11 -40 29 -55 41 -31 24 -139 95 -236 154 -98 60
-331 171 -460 219 -183 68 -434 133 -592 155 -24 3 -60 8 -80 11 -21 3 -56 8
-78 12 -40 7 -14488 16 -14496 9z"/>
</g>
</svg>
